# xmcd CD database file
#
# Track frame offsets:
#	150
#	16194
#	27366
#	40226
#	61416
#	71919
#	83354
#
# Disc length: 1309 seconds
#
# Revision: 0
# Processed by: cddbd v1.5.2PL0 Copyright (c) Steve Scherf et al.
# Submitted via: CDex 1.70beta2
#
DISCID=50051b07
DTITLE=Bud Powell - The COOL JAZZ COLLECTION 15
DYEAR=2008
DGENRE=Jazz
TTITLE0=Tea for Two
TTITLE1=Tempus Fugit
TTITLE2=Sweet Georgia Brown
TTITLE3=Willow Weep for Me
TTITLE4=Dance of the Infidels
TTITLE5=Parisian Thoroughfare
TTITLE6=The Last Time I Saw Paris
EXTD=YEAR: 2008
EXTT0=
EXTT1=
EXTT2=
EXTT3=
EXTT4=
EXTT5=
EXTT6=
PLAYORDER=
